<?xml version="1.0" encoding="utf-8"?>
<!-- Generator: Adobe Illustrator 23.1.0, SVG Export Plug-In . SVG Version: 6.00 Build 0)  -->
<svg version="1.1" id="Capa_1" xmlns="http://www.w3.org/2000/svg" xmlns:xlink="http://www.w3.org/1999/xlink" x="0px" y="0px"
	 viewBox="0 0 512 512" style="enable-background:new 0 0 512 512;" xml:space="preserve">
<style type="text/css">
	.st0{fill:#1B98D5;}
</style>
<g>
	<g>
		<path class="st0" d="M437,75C388.6,26.6,324.4,0,256,0S123.3,26.6,75,75C26.6,123.4,0,187.6,0,256s26.6,132.7,75,181
			s112.6,75,181,75s132.7-26.6,181-75s75-112.6,75-181S485.4,123.3,437,75z M256,482C131.4,482,30,380.6,30,256S131.4,30,256,30
			s226,101.4,226,226S380.6,482,256,482z"/>
	</g>
</g>
</svg>
