<svg xmlns="http://www.w3.org/2000/svg" width="17.002" height="17" viewBox="0 0 17.002 17">
  <g id="edit" transform="translate(0 -0.028)">
    <path id="Path_103" data-name="Path 103" d="M15.9,1.128a3.75,3.75,0,0,0-5.307,0L.864,10.855a.487.487,0,0,0-.138.279l-.721,5.34a.485.485,0,0,0,.138.409.5.5,0,0,0,.344.145.394.394,0,0,0,.065,0l3.217-.435a.49.49,0,1,0-.13-.971l-2.579.348.5-3.724,3.92,3.92a.5.5,0,0,0,.344.145.48.48,0,0,0,.344-.145L15.9,6.435a3.748,3.748,0,0,0,0-5.307Zm-5.119,1.2,1.634,1.634L3.537,12.837,1.9,11.2ZM5.83,15.126l-1.6-1.6L13.112,4.65l1.6,1.6Zm9.56-9.578L11.481,1.639A2.777,2.777,0,0,1,15.39,5.548Z" transform="translate(0 0)" fill="#a7a7a7"/>
  </g>
</svg>
